<svg xmlns="http://www.w3.org/2000/svg" xmlns:xlink="http://www.w3.org/1999/xlink" width="500" zoomAndPan="magnify" viewBox="0 0 375 374.999991" height="500" preserveAspectRatio="xMidYMid meet" version="1.0"><defs><g/><clipPath id="64fcff148f"><path d="M 70.625 152.101562 L 135.875 152.101562 L 135.875 227.101562 L 70.625 227.101562 Z M 70.625 152.101562 " clip-rule="nonzero"/></clipPath></defs><g clip-path="url(#64fcff148f)"><path fill="#38b6ff" d="M 75.679688 202.738281 C 81.53125 211.699219 91.644531 217.632812 103.121094 217.632812 C 121.183594 217.632812 135.875 202.941406 135.875 184.878906 C 135.875 166.820312 121.183594 152.125 103.121094 152.125 C 85.0625 152.125 70.367188 166.820312 70.367188 184.878906 L 70.367188 227.371094 L 75.679688 227.371094 Z M 111.089844 184.878906 C 111.089844 180.484375 114.664062 176.914062 119.054688 176.914062 C 123.449219 176.914062 127.023438 180.484375 127.023438 184.878906 C 127.023438 189.273438 123.449219 192.847656 119.054688 192.847656 C 114.664062 192.847656 111.089844 189.273438 111.089844 184.878906 Z M 111.089844 200.8125 C 111.089844 205.207031 107.515625 208.78125 103.121094 208.78125 C 98.726562 208.78125 95.15625 205.207031 95.15625 200.8125 C 95.15625 196.421875 98.726562 192.847656 103.121094 192.847656 C 107.515625 192.847656 111.089844 196.421875 111.089844 200.8125 Z M 103.121094 176.914062 C 98.726562 176.914062 95.15625 173.339844 95.15625 168.945312 C 95.15625 164.550781 98.726562 160.976562 103.121094 160.976562 C 107.515625 160.976562 111.089844 164.550781 111.089844 168.945312 C 111.089844 173.339844 107.515625 176.914062 103.121094 176.914062 Z M 95.15625 184.878906 C 95.15625 189.273438 91.582031 192.847656 87.1875 192.847656 C 82.792969 192.847656 79.21875 189.273438 79.21875 184.878906 C 79.21875 180.484375 82.792969 176.914062 87.1875 176.914062 C 91.582031 176.914062 95.15625 180.484375 95.15625 184.878906 Z M 95.15625 184.878906 " fill-opacity="1" fill-rule="nonzero"/></g><g fill="#ffffff" fill-opacity="1"><g transform="translate(150.175893, 199.123629)"><g><path d="M 4.5 3.34375 C 3.707031 3.34375 2.976562 3.128906 2.3125 2.703125 C 1.644531 2.285156 1.3125 1.769531 1.3125 1.15625 C 1.3125 0.71875 1.476562 0 1.8125 -1 C 3.78125 -7.050781 5.367188 -11.769531 6.578125 -15.15625 C 7.785156 -18.550781 9.257812 -22.179688 11 -26.046875 C 9.695312 -25.742188 8.351562 -25.234375 6.96875 -24.515625 C 6.351562 -24.203125 5.976562 -24.046875 5.84375 -24.046875 C 5.613281 -24.046875 5.3125 -24.234375 4.9375 -24.609375 C 4.570312 -24.984375 4.390625 -25.296875 4.390625 -25.546875 C 7.828125 -26.984375 10.84375 -27.703125 13.4375 -27.703125 C 15.125 -27.703125 16.796875 -27.40625 18.453125 -26.8125 C 20.109375 -26.226562 21.472656 -25.363281 22.546875 -24.21875 C 23.628906 -23.082031 24.171875 -21.734375 24.171875 -20.171875 C 24.171875 -17.703125 23.179688 -15.800781 21.203125 -14.46875 C 19.222656 -13.132812 17.0625 -12.242188 14.71875 -11.796875 C 12.375 -11.347656 10.394531 -11.125 8.78125 -11.125 L 8.546875 -11.125 L 6.390625 -3.390625 C 5.847656 -1.335938 5.21875 0.90625 4.5 3.34375 Z M 8.890625 -12.3125 C 10.941406 -12.4375 12.882812 -12.832031 14.71875 -13.5 C 16.550781 -14.175781 18.050781 -15.128906 19.21875 -16.359375 C 20.382812 -17.585938 20.96875 -19.0625 20.96875 -20.78125 C 20.96875 -22.550781 20.285156 -23.910156 18.921875 -24.859375 C 17.566406 -25.804688 15.914062 -26.304688 13.96875 -26.359375 C 12.425781 -23.378906 10.734375 -18.695312 8.890625 -12.3125 Z M 8.890625 -12.3125 "/></g></g></g><g fill="#ffffff" fill-opacity="1"><g transform="translate(170.723324, 199.123629)"><g><path d="M 1.765625 1.46875 C 1.234375 1.46875 0.835938 1.054688 0.578125 0.234375 C 0.316406 -0.585938 0.1875 -1.628906 0.1875 -2.890625 C 0.1875 -5.191406 0.910156 -8.320312 2.359375 -12.28125 C 3.816406 -16.25 5.476562 -19.773438 7.34375 -22.859375 C 9.21875 -25.941406 10.75 -27.484375 11.9375 -27.484375 C 12.445312 -27.484375 12.847656 -27.195312 13.140625 -26.625 C 13.429688 -26.0625 13.578125 -25.4375 13.578125 -24.75 C 13.578125 -23.5625 13.144531 -21.976562 12.28125 -20 C 11.425781 -18.03125 10.300781 -16.128906 8.90625 -14.296875 C 7.507812 -12.460938 6.066406 -11.109375 4.578125 -10.234375 C 3.703125 -7.921875 3.265625 -5.738281 3.265625 -3.6875 L 3.3125 -2.890625 C 3.363281 -2.960938 3.476562 -3.242188 3.65625 -3.734375 C 4.164062 -5.066406 4.703125 -6.269531 5.265625 -7.34375 C 5.835938 -8.425781 6.613281 -9.4375 7.59375 -10.375 C 8.582031 -11.3125 9.734375 -11.78125 11.046875 -11.78125 C 12.222656 -11.78125 13.082031 -11.398438 13.625 -10.640625 C 14.164062 -9.878906 14.4375 -8.988281 14.4375 -7.96875 C 14.4375 -7.375 14.359375 -6.820312 14.203125 -6.3125 C 14.046875 -5.800781 13.816406 -5.144531 13.515625 -4.34375 C 13.460938 -4.238281 13.363281 -4 13.21875 -3.625 C 13.070312 -3.257812 12.96875 -2.925781 12.90625 -2.625 C 12.84375 -2.332031 12.8125 -2.070312 12.8125 -1.84375 C 12.8125 -1.019531 13.160156 -0.609375 13.859375 -0.609375 C 14.421875 -0.609375 15.085938 -0.890625 15.859375 -1.453125 C 16.628906 -2.023438 17.382812 -2.785156 18.125 -3.734375 C 18.863281 -4.679688 19.503906 -5.707031 20.046875 -6.8125 L 20.671875 -6.15625 C 19.710938 -4.050781 18.5625 -2.34375 17.21875 -1.03125 C 15.875 0.269531 14.429688 0.921875 12.890625 0.921875 C 11.941406 0.921875 11.203125 0.671875 10.671875 0.171875 C 10.148438 -0.328125 9.890625 -0.972656 9.890625 -1.765625 C 9.890625 -2.285156 10.066406 -3.210938 10.421875 -4.546875 C 10.804688 -5.796875 11 -6.726562 11 -7.34375 C 11 -8.425781 10.539062 -8.96875 9.625 -8.96875 C 8.695312 -8.96875 7.914062 -8.484375 7.28125 -7.515625 C 6.65625 -6.554688 5.945312 -5.140625 5.15625 -3.265625 C 4.507812 -1.679688 3.941406 -0.5 3.453125 0.28125 C 2.972656 1.070312 2.410156 1.46875 1.765625 1.46875 Z M 5.390625 -12.703125 C 6.441406 -13.648438 7.453125 -14.878906 8.421875 -16.390625 C 9.398438 -17.910156 10.195312 -19.378906 10.8125 -20.796875 C 11.425781 -22.222656 11.734375 -23.242188 11.734375 -23.859375 C 11.429688 -23.734375 10.878906 -23.109375 10.078125 -21.984375 C 9.285156 -20.867188 8.453125 -19.472656 7.578125 -17.796875 C 6.703125 -16.117188 5.972656 -14.421875 5.390625 -12.703125 Z M 5.390625 -12.703125 "/></g></g></g><g fill="#ffffff" fill-opacity="1"><g transform="translate(188.769662, 199.123629)"><g><path d="M 7.625 -16.203125 C 7.082031 -16.203125 6.625 -16.328125 6.25 -16.578125 C 5.882812 -16.835938 5.703125 -17.210938 5.703125 -17.703125 C 5.703125 -18.296875 6.023438 -18.816406 6.671875 -19.265625 C 7.328125 -19.710938 8.03125 -19.9375 8.78125 -19.9375 C 9.875 -19.9375 10.421875 -19.460938 10.421875 -18.515625 C 10.421875 -17.972656 10.125 -17.453125 9.53125 -16.953125 C 8.945312 -16.453125 8.3125 -16.203125 7.625 -16.203125 Z M 3.078125 1.15625 C 2.003906 1.15625 1.171875 0.832031 0.578125 0.1875 C -0.015625 -0.445312 -0.3125 -1.265625 -0.3125 -2.265625 C -0.3125 -3.296875 -0.0234375 -4.6875 0.546875 -6.4375 C 1.128906 -8.195312 1.863281 -9.742188 2.75 -11.078125 C 3.632812 -12.410156 4.523438 -13.078125 5.421875 -13.078125 C 5.753906 -13.078125 6.03125 -12.976562 6.25 -12.78125 C 6.46875 -12.59375 6.578125 -12.320312 6.578125 -11.96875 C 6.578125 -11.738281 6.472656 -11.421875 6.265625 -11.015625 C 6.066406 -10.617188 5.734375 -10.050781 5.265625 -9.3125 C 4.453125 -7.957031 3.804688 -6.757812 3.328125 -5.71875 C 2.847656 -4.675781 2.609375 -3.691406 2.609375 -2.765625 C 2.609375 -1.972656 2.75 -1.4375 3.03125 -1.15625 C 3.320312 -0.875 3.757812 -0.734375 4.34375 -0.734375 C 6.375 -0.734375 8.390625 -2.695312 10.390625 -6.625 L 10.96875 -6 C 10.070312 -3.738281 8.929688 -1.976562 7.546875 -0.71875 C 6.160156 0.53125 4.671875 1.15625 3.078125 1.15625 Z M 3.078125 1.15625 "/></g></g></g><g fill="#ffffff" fill-opacity="1"><g transform="translate(197.196414, 199.123629)"><g><path d="M 20.125 1.1875 C 19.175781 1.1875 18.441406 0.90625 17.921875 0.34375 C 17.410156 -0.21875 17.15625 -0.9375 17.15625 -1.8125 C 17.15625 -2.21875 17.210938 -2.671875 17.328125 -3.171875 C 17.453125 -3.671875 17.585938 -4.140625 17.734375 -4.578125 C 18.066406 -5.628906 18.234375 -6.398438 18.234375 -6.890625 C 18.234375 -7.660156 17.941406 -8.046875 17.359375 -8.046875 C 16.796875 -8.046875 16.140625 -7.632812 15.390625 -6.8125 C 14.648438 -5.988281 13.648438 -4.640625 12.390625 -2.765625 C 12.085938 -2.304688 11.625 -1.523438 11 -0.421875 L 10.28125 0.890625 C 9.8125 0.890625 9.304688 0.796875 8.765625 0.609375 C 8.234375 0.429688 7.96875 0.191406 7.96875 -0.109375 C 7.96875 -0.367188 8.238281 -1.191406 8.78125 -2.578125 C 9.289062 -3.910156 9.703125 -5.078125 10.015625 -6.078125 C 10.335938 -7.078125 10.5 -7.910156 10.5 -8.578125 C 10.5 -9.347656 10.234375 -9.734375 9.703125 -9.734375 C 9.003906 -9.734375 8.101562 -9.1875 7 -8.09375 C 5.894531 -7.007812 4.800781 -5.625 3.71875 -3.9375 C 2.644531 -2.257812 1.816406 -0.597656 1.234375 1.046875 C 0.765625 1.046875 0.21875 0.914062 -0.40625 0.65625 C -1.03125 0.394531 -1.34375 0.175781 -1.34375 0 L 1.109375 -9.859375 C 1.191406 -10.140625 1.46875 -10.382812 1.9375 -10.59375 C 2.414062 -10.8125 2.847656 -10.921875 3.234375 -10.921875 C 3.617188 -10.921875 3.929688 -10.804688 4.171875 -10.578125 C 4.421875 -10.347656 4.546875 -10.039062 4.546875 -9.65625 C 4.546875 -9.25 4.363281 -8.328125 4 -6.890625 C 5.226562 -8.578125 6.5 -9.976562 7.8125 -11.09375 C 9.125 -12.21875 10.351562 -12.78125 11.5 -12.78125 C 12.375 -12.78125 13 -12.46875 13.375 -11.84375 C 13.75 -11.226562 13.9375 -10.460938 13.9375 -9.546875 C 13.9375 -9.054688 13.882812 -8.597656 13.78125 -8.171875 C 13.675781 -7.753906 13.507812 -7.1875 13.28125 -6.46875 C 15.070312 -9.101562 16.929688 -10.421875 18.859375 -10.421875 C 19.785156 -10.421875 20.457031 -10.144531 20.875 -9.59375 C 21.300781 -9.050781 21.515625 -8.367188 21.515625 -7.546875 C 21.515625 -6.722656 21.257812 -5.566406 20.75 -4.078125 C 20.71875 -3.972656 20.617188 -3.640625 20.453125 -3.078125 C 20.285156 -2.515625 20.203125 -2.050781 20.203125 -1.6875 C 20.203125 -1 20.523438 -0.65625 21.171875 -0.65625 C 22.085938 -0.65625 22.988281 -1.242188 23.875 -2.421875 C 24.757812 -3.597656 25.585938 -5.007812 26.359375 -6.65625 L 27.015625 -5.84375 C 26.273438 -3.925781 25.316406 -2.273438 24.140625 -0.890625 C 22.972656 0.492188 21.632812 1.1875 20.125 1.1875 Z M 20.125 1.1875 "/></g></g></g><g fill="#ffffff" fill-opacity="1"><g transform="translate(221.630153, 199.123629)"><g/></g></g><g fill="#ffffff" fill-opacity="1"><g transform="translate(230.672564, 199.123629)"><g><path d="M -0.1875 3.34375 C 0.113281 2.425781 1.597656 -0.84375 4.265625 -6.46875 C 8.191406 -14.976562 10.820312 -20.695312 12.15625 -23.625 C 12.382812 -24.144531 12.5 -24.570312 12.5 -24.90625 C 12.5 -25.46875 12.128906 -25.75 11.390625 -25.75 C 10.390625 -25.75 9.539062 -25.429688 8.84375 -24.796875 C 8.15625 -24.171875 7.632812 -23.382812 7.28125 -22.4375 C 6.9375 -21.488281 6.765625 -20.523438 6.765625 -19.546875 C 6.765625 -19.003906 6.816406 -18.390625 6.921875 -17.703125 C 6.078125 -17.703125 5.410156 -18.066406 4.921875 -18.796875 C 4.429688 -19.523438 4.1875 -20.328125 4.1875 -21.203125 C 4.1875 -22.253906 4.582031 -23.285156 5.375 -24.296875 C 6.175781 -25.316406 7.195312 -26.140625 8.4375 -26.765625 C 9.6875 -27.390625 10.914062 -27.703125 12.125 -27.703125 C 13.125 -27.703125 13.953125 -27.425781 14.609375 -26.875 C 15.265625 -26.320312 15.765625 -25.351562 16.109375 -23.96875 C 16.453125 -22.582031 16.625 -20.648438 16.625 -18.171875 C 16.625 -16.367188 16.484375 -13.582031 16.203125 -9.8125 C 15.992188 -7.039062 15.890625 -5.269531 15.890625 -4.5 C 16.660156 -6.8125 17.75 -9.390625 19.15625 -12.234375 C 20.570312 -15.085938 21.976562 -17.722656 23.375 -20.140625 C 24.78125 -22.566406 25.878906 -24.367188 26.671875 -25.546875 C 27.078125 -26.191406 27.421875 -26.632812 27.703125 -26.875 C 27.984375 -27.125 28.34375 -27.25 28.78125 -27.25 C 29.144531 -27.25 29.710938 -27.109375 30.484375 -26.828125 C 29.960938 -25.722656 29.289062 -23.476562 28.46875 -20.09375 C 27.65625 -16.707031 26.945312 -13.144531 26.34375 -9.40625 C 25.738281 -5.675781 25.4375 -2.671875 25.4375 -0.390625 C 25.4375 0.410156 25.472656 1.003906 25.546875 1.390625 C 25.628906 1.773438 25.738281 2.148438 25.875 2.515625 C 26.019531 2.890625 26.128906 3.164062 26.203125 3.34375 C 25.097656 3.34375 24.265625 3.179688 23.703125 2.859375 C 23.140625 2.546875 22.753906 2.035156 22.546875 1.328125 C 22.347656 0.617188 22.25 -0.375 22.25 -1.65625 C 22.25 -4.21875 22.523438 -6.9375 23.078125 -9.8125 C 23.628906 -12.6875 24.441406 -16.203125 25.515625 -20.359375 C 23.898438 -18.046875 22.128906 -14.769531 20.203125 -10.53125 C 18.273438 -6.300781 16.851562 -2.828125 15.9375 -0.109375 L 15.65625 -0.03125 C 15.476562 0.0390625 15.300781 0.078125 15.125 0.078125 C 14.28125 0.078125 13.722656 -0.40625 13.453125 -1.375 C 13.179688 -2.351562 13.046875 -3.910156 13.046875 -6.046875 C 13.046875 -7.347656 13.097656 -9.539062 13.203125 -12.625 C 13.304688 -15.851562 13.359375 -18.210938 13.359375 -19.703125 L 13.3125 -21.96875 L 9.359375 -12.65625 C 7.453125 -8.144531 6.03125 -4.867188 5.09375 -2.828125 C 4.15625 -0.785156 3.269531 0.75 2.4375 1.78125 C 1.601562 2.820312 0.726562 3.34375 -0.1875 3.34375 Z M -0.1875 3.34375 "/></g></g></g><g fill="#ffffff" fill-opacity="1"><g transform="translate(260.72414, 199.123629)"><g><path d="M 11 -3.65625 C 11.71875 -3.65625 12.488281 -3.890625 13.3125 -4.359375 C 14.132812 -4.835938 14.765625 -5.566406 15.203125 -6.546875 L 15.890625 -6.046875 C 15.347656 -4.804688 14.625 -3.863281 13.71875 -3.21875 C 12.8125 -2.582031 11.867188 -2.265625 10.890625 -2.265625 C 10.296875 -2.265625 9.65625 -2.378906 8.96875 -2.609375 C 8.019531 -1.484375 6.976562 -0.5625 5.84375 0.15625 C 4.71875 0.875 3.617188 1.234375 2.546875 1.234375 C 1.492188 1.234375 0.726562 0.882812 0.25 0.1875 C -0.226562 -0.5 -0.46875 -1.359375 -0.46875 -2.390625 C -0.46875 -3.460938 -0.242188 -4.578125 0.203125 -5.734375 C 0.660156 -6.890625 1.25 -7.851562 1.96875 -8.625 C 2.6875 -9.394531 3.414062 -9.78125 4.15625 -9.78125 C 4.46875 -9.78125 4.863281 -9.675781 5.34375 -9.46875 C 5.5 -10.644531 5.914062 -11.617188 6.59375 -12.390625 C 7.28125 -13.160156 8.238281 -13.546875 9.46875 -13.546875 L 9.625 -13.546875 C 10.0625 -13.546875 10.445312 -13.46875 10.78125 -13.3125 C 10.976562 -13.238281 11.265625 -13.117188 11.640625 -12.953125 C 12.015625 -12.785156 12.40625 -12.703125 12.8125 -12.703125 C 13.144531 -12.703125 13.414062 -12.789062 13.625 -12.96875 C 13.832031 -13.144531 13.9375 -13.375 13.9375 -13.65625 C 13.9375 -14.40625 13.445312 -15.085938 12.46875 -15.703125 C 12.925781 -16.316406 13.53125 -16.625 14.28125 -16.625 C 14.863281 -16.625 15.347656 -16.378906 15.734375 -15.890625 C 16.117188 -15.398438 16.3125 -14.785156 16.3125 -14.046875 C 16.3125 -13.253906 16.0625 -12.582031 15.5625 -12.03125 C 15.0625 -11.476562 14.414062 -11.203125 13.625 -11.203125 C 13.1875 -11.203125 12.765625 -11.300781 12.359375 -11.5 C 12.429688 -11.164062 12.46875 -10.804688 12.46875 -10.421875 C 12.46875 -9.523438 12.226562 -8.5 11.75 -7.34375 C 11.28125 -6.195312 10.671875 -5.046875 9.921875 -3.890625 C 10.234375 -3.734375 10.59375 -3.65625 11 -3.65625 Z M 8.625 -4.6875 C 9.257812 -5.644531 9.789062 -6.632812 10.21875 -7.65625 C 10.644531 -8.6875 10.859375 -9.609375 10.859375 -10.421875 C 10.859375 -11.554688 10.5 -12.125 9.78125 -12.125 C 9.445312 -12.125 9.097656 -11.957031 8.734375 -11.625 C 8.378906 -11.289062 8.082031 -10.847656 7.84375 -10.296875 C 7.613281 -9.742188 7.5 -9.132812 7.5 -8.46875 C 7.5 -7.875 7.601562 -7.195312 7.8125 -6.4375 C 8.019531 -5.6875 8.289062 -5.101562 8.625 -4.6875 Z M 3.921875 -0.734375 C 4.390625 -0.734375 4.957031 -0.988281 5.625 -1.5 C 6.289062 -2.007812 6.957031 -2.664062 7.625 -3.46875 C 6.15625 -4.75 5.382812 -6.632812 5.3125 -9.125 C 5 -8.96875 4.625 -8.488281 4.1875 -7.6875 C 3.757812 -6.894531 3.390625 -6.007812 3.078125 -5.03125 C 2.765625 -4.0625 2.609375 -3.21875 2.609375 -2.5 C 2.609375 -1.320312 3.046875 -0.734375 3.921875 -0.734375 Z M 8.859375 -16.3125 C 8.578125 -16.4375 8.351562 -16.632812 8.1875 -16.90625 C 8.019531 -17.175781 7.9375 -17.398438 7.9375 -17.578125 C 7.9375 -17.890625 8.164062 -18.410156 8.625 -19.140625 C 9.082031 -19.867188 9.617188 -20.53125 10.234375 -21.125 C 10.847656 -21.71875 11.398438 -22.015625 11.890625 -22.015625 C 12.554688 -22.015625 12.941406 -21.5625 13.046875 -20.65625 C 13.046875 -20.65625 12.84375 -20.453125 12.4375 -20.046875 C 11.71875 -19.378906 11.050781 -18.726562 10.4375 -18.09375 C 9.820312 -17.46875 9.296875 -16.875 8.859375 -16.3125 Z M 8.859375 -16.3125 "/></g></g></g><g fill="#ffffff" fill-opacity="1"><g transform="translate(274.07612, 199.123629)"><g><path d="M 7.625 -16.203125 C 7.082031 -16.203125 6.625 -16.328125 6.25 -16.578125 C 5.882812 -16.835938 5.703125 -17.210938 5.703125 -17.703125 C 5.703125 -18.296875 6.023438 -18.816406 6.671875 -19.265625 C 7.328125 -19.710938 8.03125 -19.9375 8.78125 -19.9375 C 9.875 -19.9375 10.421875 -19.460938 10.421875 -18.515625 C 10.421875 -17.972656 10.125 -17.453125 9.53125 -16.953125 C 8.945312 -16.453125 8.3125 -16.203125 7.625 -16.203125 Z M 3.078125 1.15625 C 2.003906 1.15625 1.171875 0.832031 0.578125 0.1875 C -0.015625 -0.445312 -0.3125 -1.265625 -0.3125 -2.265625 C -0.3125 -3.296875 -0.0234375 -4.6875 0.546875 -6.4375 C 1.128906 -8.195312 1.863281 -9.742188 2.75 -11.078125 C 3.632812 -12.410156 4.523438 -13.078125 5.421875 -13.078125 C 5.753906 -13.078125 6.03125 -12.976562 6.25 -12.78125 C 6.46875 -12.59375 6.578125 -12.320312 6.578125 -11.96875 C 6.578125 -11.738281 6.472656 -11.421875 6.265625 -11.015625 C 6.066406 -10.617188 5.734375 -10.050781 5.265625 -9.3125 C 4.453125 -7.957031 3.804688 -6.757812 3.328125 -5.71875 C 2.847656 -4.675781 2.609375 -3.691406 2.609375 -2.765625 C 2.609375 -1.972656 2.75 -1.4375 3.03125 -1.15625 C 3.320312 -0.875 3.757812 -0.734375 4.34375 -0.734375 C 6.375 -0.734375 8.390625 -2.695312 10.390625 -6.625 L 10.96875 -6 C 10.070312 -3.738281 8.929688 -1.976562 7.546875 -0.71875 C 6.160156 0.53125 4.671875 1.15625 3.078125 1.15625 Z M 3.078125 1.15625 "/></g></g></g></svg>